<svg id="Capa_1" enable-background="new 0 0 512 512" height="512" viewBox="0 0 512 512" width="512" xmlns="http://www.w3.org/2000/svg"><g><path d="m370.522 128.469c13.273-13.536 21.478-32.059 21.478-52.469 0-41.355-33.645-75-75-75-36.22 0-66.522 25.808-73.491 60h-61.509c-33.084 0-60 26.916-60 60 0 16.542-13.458 30-30 30h-77c-8.284 0-15 6.716-15 15s6.716 15 15 15h77c33.084 0 60-26.916 60-60 0-16.542 13.458-30 30-30h61.509c2.938 14.42 10.036 27.339 19.969 37.469-81.584 23.319-141.478 98.561-141.478 187.531 0 107.523 87.477 195 195 195s195-87.477 195-195c0-88.97-59.894-164.212-141.478-187.531zm-98.522-52.469c0-24.813 20.187-45 45-45s45 20.187 45 45c0 19.555-12.541 36.228-30 42.42v-42.42c0-8.284-6.716-15-15-15s-15 6.716-15 15v42.42c-17.459-6.192-30-22.865-30-42.42zm135 255h-90c-8.284 0-15-6.716-15-15v-120c0-8.284 6.716-15 15-15s15 6.716 15 15v105h75c8.284 0 15 6.716 15 15s-6.716 15-15 15z"/></g></svg>