<svg height="512pt" viewBox="0 0 512 512" width="512pt" xmlns="http://www.w3.org/2000/svg"><path d="m264 8h-16c-132.546875 0-240 107.453125-240 240v16c0 132.546875 107.453125 240 240 240h16c132.546875 0 240-107.453125 240-240v-16c0-132.546875-107.453125-240-240-240zm200 254.710938c0 111.167968-90.121094 201.289062-201.289062 201.289062h-13.421876c-111.167968 0-201.289062-90.121094-201.289062-201.289062v-13.421876c0-111.167968 90.121094-201.289062 201.289062-201.289062h13.421876c111.167968 0 201.289062 90.121094 201.289062 201.289062zm0 0" fill="#acabb1"/><path d="m262.710938 48h-13.421876c-111.167968 0-201.289062 90.121094-201.289062 201.289062v13.421876c0 111.167968 90.121094 201.289062 201.289062 201.289062h13.421876c111.167968 0 201.289062-90.121094 201.289062-201.289062v-13.421876c0-111.167968-90.121094-201.289062-201.289062-201.289062zm25.289062 208v1.03125c0 17.105469-13.863281 30.96875-30.96875 30.96875h-2.0625c-17.105469 0-30.96875-13.863281-30.96875-30.96875v-2.0625c0-17.105469 13.863281-30.96875 30.96875-30.96875h2.0625c17.105469 0 30.96875 13.863281 30.96875 30.96875zm0 0" fill="#cca400"/><path d="m257.03125 224h-2.0625c-17.105469 0-30.96875 13.863281-30.96875 30.96875v2.0625c0 17.105469 13.863281 30.96875 30.96875 30.96875h2.0625c17.105469 0 30.96875-13.863281 30.96875-30.96875v-2.0625c0-17.105469-13.863281-30.96875-30.96875-30.96875zm0 0" fill="#2b3990"/><g fill="#231f20"><path d="m264 0h-16c-136.902344.15625-247.84375 111.097656-248 248v16c.15625 136.902344 111.097656 247.84375 248 248h16c136.902344-.15625 247.84375-111.097656 248-248v-16c-.15625-136.902344-111.097656-247.84375-248-248zm232 264c-.144531 128.070312-103.929688 231.855469-232 232h-16c-128.070312-.144531-231.855469-103.929688-232-232v-16c.144531-128.070312 103.929688-231.855469 232-232h16c128.070312.144531 231.855469 103.929688 232 232zm0 0"/><path d="m262.710938 40h-13.421876c-115.53125.132812-209.15625 93.757812-209.289062 209.289062v13.421876c.132812 115.53125 93.757812 209.15625 209.289062 209.289062h13.421876c115.53125-.132812 209.15625-93.757812 209.289062-209.289062v-13.421876c-.132812-115.53125-93.757812-209.15625-209.289062-209.289062zm193.289062 222.710938c-.125 106.699218-86.589844 193.164062-193.289062 193.289062h-13.421876c-106.699218-.125-193.164062-86.589844-193.289062-193.289062v-13.421876c.125-106.699218 86.589844-193.164062 193.289062-193.289062h13.421876c106.699218.125 193.164062 86.589844 193.289062 193.289062zm0 0"/><path d="m376 248h-80.703125c-2.933594-15.964844-15.457031-28.441406-31.433594-31.3125 0-.238281.136719-.441406.136719-.6875v-128c0-4.417969-3.582031-8-8-8s-8 3.582031-8 8v128c0 .246094.121094.449219.136719.6875-18.5625 3.304688-32.097657 19.425781-32.136719 38.28125v2.0625c.027344 21.511719 17.457031 38.941406 38.96875 38.96875h2.0625c18.804688-.039062 34.898438-13.5 38.265625-32h80.703125c4.417969 0 8-3.582031 8-8s-3.582031-8-8-8zm-96 9.03125c-.011719 12.679688-10.289062 22.957031-22.96875 22.96875h-2.0625c-12.679688-.011719-22.957031-10.289062-22.96875-22.96875v-2.0625c.011719-12.679688 10.289062-22.957031 22.96875-22.96875h2.0625c12.679688.011719 22.957031 10.289062 22.96875 22.96875zm0 0"/><path d="m120 370.953125v8.695313c0 4.417968 3.582031 8 8 8s8-3.582032 8-8v-8.695313c0-4.417969-3.582031-8-8-8s-8 3.582031-8 8zm0 0"/><path d="m120 336.144531v8.695313c0 4.417968 3.582031 8 8 8s8-3.582032 8-8v-8.695313c0-4.417969-3.582031-8-8-8s-8 3.582031-8 8zm0 0"/><path d="m120 301.335938v8.703124c0 4.417969 3.582031 8 8 8s8-3.582031 8-8v-8.703124c0-4.417969-3.582031-8-8-8s-8 3.582031-8 8zm0 0"/></g></svg>